<svg id="_x33_0" enable-background="new 0 0 64 64" height="512" viewBox="0 0 64 64" width="512" xmlns="http://www.w3.org/2000/svg"><g><g><g><path d="m40.988 29.002c-1.039 0-2.064-.272-2.988-.806-.358-.209-.694-.455-1-.729-.305.273-.64.518-.996.726-1.392.803-3.008 1.015-4.557.601-1.549-.415-2.843-1.408-3.644-2.795-1.654-2.865-.669-6.542 2.196-8.196.444-.258.921-.457 1.417-.592-.274-.693-.416-1.44-.416-2.211 0-3.309 2.691-6 6-6s6 2.691 6 6c0 .771-.142 1.518-.417 2.211.497.136.975.335 1.42.594 2.862 1.653 3.848 5.329 2.193 8.194-.801 1.387-2.095 2.38-3.644 2.795-.517.139-1.042.208-1.564.208z" fill="#f0bc5e"/></g></g><g><path d="m53 17v-12c0-1.103-.897-2-2-2h-10c0-1.103-.897-2-2-2h-4c-1.103 0-2 .897-2 2h-16c-1.103 0-2 .897-2 2v12c-1.103 0-2 .897-2 2v4c0 1.103.897 2 2 2v26c0 .366.106.705.278 1-.172.295-.278.634-.278 1v6c0 1.103.897 2 2 2h16c0 1.103.897 2 2 2h4c1.103 0 2-.897 2-2h10c1.103 0 2-.897 2-2v-6c0-.366-.106-.705-.278-1 .172-.295.278-.634.278-1v-26c1.103 0 2-.897 2-2v-4c0-1.103-.897-2-2-2zm-36 42v-6h16v6zm18 2v-23.586l.614.614 1.386-6.929 1.386 6.929.614-.614v23.586zm16-2h-10v-6h10zm2-36h-6.007c.001.671-.109 1.346-.341 2h4.348v26h-10v-15.586l1.197-1.197 5.3 2.65-2.384-9.535c-.515.49-1.107.885-1.769 1.166l1.159 4.635-2.7-1.35-2.188 2.188-1.105-5.524c-.172-.079-.344-.156-.509-.251-.358-.209-.694-.455-1-.729-.305.273-.64.518-.996.726-.169.097-.341.185-.516.265l-1.103 5.513-2.188-2.188-2.7 1.35 1.159-4.635c-.662-.281-1.254-.675-1.769-1.166l-2.384 9.535 5.3-2.65 1.196 1.197v15.586h-16v-26h10.347c-.232-.654-.342-1.329-.341-2h-12.006v-4h13.532c.413-.462.902-.87 1.468-1.196.444-.258.921-.457 1.417-.592-.027-.069-.037-.143-.061-.212h-14.356v-12h16v5.54c.578-.519 1.254-.926 2-1.19v-6.35h4v6.35c.746.265 1.422.672 2 1.19v-5.54h10v12h-8.356c-.024.069-.034.143-.061.211.497.136.975.335 1.42.594.564.326 1.053.733 1.465 1.194h7.532z"/><path d="m37 17c-2.206 0-4 1.794-4 4s1.794 4 4 4 4-1.794 4-4-1.794-4-4-4zm0 6c-1.103 0-2-.897-2-2s.897-2 2-2 2 .897 2 2-.897 2-2 2z"/></g></g></svg>