<svg id="_x33_0" enable-background="new 0 0 64 64" height="512" viewBox="0 0 64 64" width="512" xmlns="http://www.w3.org/2000/svg"><g><g><g><path d="m32 19.281-8.692-6.955c-1.445-1.155-2.308-2.988-2.308-4.902 0-2.05.961-3.957 2.571-5.102l.281-.2c1.033-.734 2.237-1.122 3.481-1.122 1.652 0 3.266.71 4.428 1.95l.239.255.239-.255c1.162-1.24 2.776-1.95 4.428-1.95 1.245 0 2.448.388 3.481 1.122l.282.201c1.609 1.144 2.57 3.052 2.57 5.101 0 1.914-.863 3.747-2.308 4.903z" fill="#f0bc5e"/></g></g><path d="m63 7.969-14.34 11.031h-7.481c-2.92 0-5.775 1.187-7.834 3.257l-.335.338-.359-.359c-2.088-2.087-4.862-3.236-7.814-3.236h-9.497l-14.34-11.031v32.505l10.512 8.6-.39.39c-.724.724-1.122 1.685-1.122 2.707 0 2.112 1.717 3.829 3.829 3.829.428 0 .84-.085 1.233-.219.294 1.821 1.864 3.219 3.767 3.219.856 0 1.66-.294 2.327-.809.449 1.614 1.917 2.809 3.673 2.809.848 0 1.654-.274 2.317-.78.457 1.603 1.935 2.78 3.683 2.78 1.022 0 1.984-.398 2.707-1.122l1.968-1.968c.719.7 1.663 1.089 2.668 1.089 1.756 0 3.224-1.195 3.673-2.809.666.516 1.47.81 2.326.81 1.756 0 3.224-1.195 3.673-2.809.667.515 1.471.809 2.327.809 1.903 0 3.473-1.398 3.767-3.219.394.134.806.219 1.233.219 2.112 0 3.829-1.717 3.829-3.829 0-1.022-.398-1.984-1.122-2.707l-1.408-1.408 6.53-5.596zm-2 28.658-10.658-16.397 10.658-8.199zm-47.342-16.397-10.658 16.397v-24.596zm-1.658 31.941c0-.488.19-.947.536-1.293l3.343-3.343c.345-.345.804-.535 1.292-.535 1.009 0 1.829.82 1.829 1.829 0 .488-.19.947-.536 1.293l-3.343 3.343c-.345.345-.804.535-1.292.535-1.009 0-1.829-.82-1.829-1.829zm6.829 4.829c-1.009 0-1.829-.82-1.829-1.829 0-.488.19-.947.536-1.293l3.343-3.343c.345-.345.804-.535 1.292-.535 1.009 0 1.829.82 1.829 1.829 0 .488-.19.947-.536 1.293l-3.343 3.343c-.345.345-.804.535-1.292.535zm7.293 1.464c-.346.346-.805.536-1.293.536-1.009 0-1.829-.82-1.829-1.829 0-.488.19-.947.536-1.293l3.343-3.343c.345-.345.804-.535 1.292-.535 1.009 0 1.829.82 1.829 1.829 0 .488-.19.947-.536 1.293zm6 2c-.346.346-.805.536-1.293.536-1.009 0-1.829-.82-1.829-1.829 0-.488.19-.947.536-1.293l3.343-3.343c.345-.345.804-.535 1.292-.535 1.009 0 1.829.82 1.829 1.829 0 .488-.19.947-.536 1.293zm6.049-1.464c-.473 0-.916-.182-1.258-.507.699-.718 1.087-1.661 1.087-2.664 0-.73-.216-1.405-.571-1.986l2.036 2.036c.345.345.535.804.535 1.292 0 1.009-.82 1.829-1.829 1.829zm17-7c-.488 0-.947-.19-1.293-.536l-13.171-13.171-1.414 1.414 12.171 12.171c.346.346.536.805.536 1.293 0 1.009-.82 1.829-1.829 1.829-.488 0-.947-.19-1.293-.536l-12.171-12.171-1.414 1.414 10.171 10.171c.346.346.536.805.536 1.293 0 1.009-.82 1.829-1.829 1.829-.488 0-.947-.19-1.293-.536l-10.671-10.671-1.414 1.414 5.364 5.364c-.58-.355-1.256-.571-1.986-.571-.856 0-1.66.294-2.327.809-.449-1.614-1.917-2.809-3.673-2.809-.856 0-1.66.294-2.327.809-.449-1.614-1.917-2.809-3.673-2.809-.422 0-.834.068-1.223.199-.301-1.813-1.88-3.199-3.777-3.199-1.022 0-1.984.398-2.707 1.122l-1.531 1.531-9.606-7.859 12.216-18.794h9.295c2.417 0 4.689.941 6.399 2.65l.365.365-5.059 5.1c-.979.989-2.124 1.768-3.401 2.315l-.122.052c-1.247.535-2.039 1.745-2.018 3.14.026 1.863 1.562 3.378 3.425 3.378h2.352c2.39 0 4.463-.81 5.996-2.343l.899-.899c1.133-1.134 2.64-1.758 4.243-1.758.803 0 1.585-.12 2.338-.331l16.209 16.209c.346.346.536.805.536 1.293 0 1.009-.82 1.829-1.829 1.829zm-12.927-20.17c1.134-.655 2.128-1.56 2.879-2.686l1.259-1.889-1.664-1.109-1.259 1.889c-1.238 1.856-3.31 2.965-5.542 2.965-2.137 0-4.146.832-5.657 2.343l-.899.899c-1.167 1.167-2.708 1.758-4.582 1.758h-2.352c-.775 0-1.415-.63-1.426-1.464-.008-.533.301-.999.805-1.215l.122-.052c1.516-.65 2.874-1.574 4.035-2.746l6.799-6.855c1.686-1.696 4.025-2.668 6.416-2.668h7.279l12.227 18.811-5.632 4.828z"/></g></svg>